<svg version="1.2" xmlns="http://www.w3.org/2000/svg" viewBox="0 0 32 32" width="32" height="32">
	<title>4829869_arrow_next_right_icon-svg</title>
	<style>
		.s0 { fill: #ffffff } 
	</style>
	<g id="Layer_2">
		<path id="Layer" class="s0" d="m22.3 8.8q0.2-0.1 0.4-0.1 0.2 0 0.4 0.1 0.2 0.1 0.3 0.2l6.4 6.4q0.1 0.1 0.2 0.3 0 0.1 0 0.3 0 0.2 0 0.4-0.1 0.1-0.2 0.2l-6.4 6.4q-0.1 0.1-0.3 0.2-0.2 0.1-0.4 0.1-0.2 0-0.4-0.1-0.2-0.1-0.3-0.2-0.1-0.1-0.2-0.3-0.1-0.2-0.1-0.4 0-0.2 0.1-0.4 0.1-0.2 0.2-0.3l4.6-4.6h-23.5q-0.5 0-0.7-0.3-0.3-0.3-0.3-0.7 0-0.4 0.3-0.7 0.2-0.3 0.7-0.3h23.5l-4.6-4.6q-0.1-0.1-0.2-0.3-0.1-0.2-0.1-0.4 0-0.2 0.1-0.4 0.1-0.2 0.2-0.3 0.1-0.1 0.3-0.2z"/>
	</g>
</svg>